<?xml version="1.0" encoding="UTF-8" standalone="no"?><!DOCTYPE svg PUBLIC "-//W3C//DTD SVG 1.1//EN" "http://www.w3.org/Graphics/SVG/1.1/DTD/svg11.dtd"><svg width="100%" height="100%" viewBox="0 0 8000 4500" version="1.1" xmlns="http://www.w3.org/2000/svg" xmlns:xlink="http://www.w3.org/1999/xlink" xml:space="preserve" xmlns:serif="http://www.serif.com/" style="fill-rule:evenodd;clip-rule:evenodd;stroke-linecap:round;stroke-linejoin:round;stroke-miterlimit:1.5;"><g id="Layer1"><g><path d="M10.96,298.254c0,0 5212.44,-0.392 7978.07,-0.765" style="fill:none;stroke:#fff;stroke-opacity:0.25;stroke-width:15.42px;"/><path d="M7987.91,597.035l-7975.74,-1.015" style="fill:none;stroke:#fff;stroke-opacity:0.25;stroke-width:15.42px;"/><path d="M11.677,895.386l7975.65,0.042" style="fill:none;stroke:#fff;stroke-opacity:0.25;stroke-width:15.42px;"/><path d="M10.512,1193.12c2805.97,0.001 4870.22,9.889 7977.18,0.527" style="fill:none;stroke:#fff;stroke-opacity:0.25;stroke-width:15.42px;"/><path d="M10.172,1492.76l7977.32,-1.227" style="fill:none;stroke:#fff;stroke-opacity:0.25;stroke-width:15.42px;"/><path d="M11.159,1789.48l7976.45,0.381" style="fill:none;stroke:#fff;stroke-opacity:0.25;stroke-width:15.42px;"/><path d="M12.326,2089.29l7974.46,-0.663" style="fill:none;stroke:#fff;stroke-opacity:0.25;stroke-width:15.42px;"/><path d="M7987.19,2386.29l-7975.04,1.209" style="fill:none;stroke:#fff;stroke-opacity:0.25;stroke-width:15.42px;"/><path d="M12.057,2686l7975.68,0.654" style="fill:none;stroke:#fff;stroke-opacity:0.25;stroke-width:15.42px;"/><path d="M14.307,2983.82l7973.08,0.059" style="fill:none;stroke:#fff;stroke-opacity:0.25;stroke-width:15.42px;"/><path d="M7987.43,3282.63l-7973.44,-0.477" style="fill:none;stroke:#fff;stroke-opacity:0.25;stroke-width:15.42px;"/><path d="M15.334,3580.54l7971.22,-0.042" style="fill:none;stroke:#fff;stroke-opacity:0.25;stroke-width:15.42px;"/><path d="M13.288,3878.92l7973.17,0.146" style="fill:none;stroke:#fff;stroke-opacity:0.25;stroke-width:15.42px;"/><path d="M11.674,4177.65l7974.84,-0.124" style="fill:none;stroke:#fff;stroke-opacity:0.25;stroke-width:15.42px;"/><path d="M11.829,4476.34l7975.36,0.005" style="fill:none;stroke:#fff;stroke-opacity:0.25;stroke-width:15.42px;"/><path d="M316.807,3.717l2.758,4464.65" style="fill:none;stroke:#fff;stroke-opacity:0.25;stroke-width:15.42px;"/><path d="M625.05,-0.517l-0.418,4469.11" style="fill:none;stroke:#fff;stroke-opacity:0.25;stroke-width:15.42px;"/><path d="M930.369,0.458c1.315,1492.6 -0.171,2974.22 1.143,4466.82" style="fill:none;stroke:#fff;stroke-opacity:0.25;stroke-width:15.42px;"/><path d="M1238.65,-33.4l-0.116,4501.23" style="fill:none;stroke:#fff;stroke-opacity:0.25;stroke-width:15.42px;"/><path d="M1545.17,-0.957l0.138,4469.44" style="fill:none;stroke:#fff;stroke-opacity:0.25;stroke-width:15.42px;"/><path d="M1850.98,0.656l1.284,4467.61l-1.284,-4467.61Z" style="fill:none;stroke:#fff;stroke-opacity:0.25;stroke-width:15.42px;"/><path d="M2158.89,0.74l-0.099,4468.52l0.099,-4468.52Z" style="fill:none;stroke:#fff;stroke-opacity:0.25;stroke-width:15.42px;"/><path d="M2464.58,-1.939l0.921,4471.41" style="fill:none;stroke:#fff;stroke-opacity:0.25;stroke-width:15.42px;"/><path d="M2770.78,-0.788l1.797,4470.26" style="fill:none;stroke:#fff;stroke-opacity:0.25;stroke-width:15.42px;"/><path d="M3078.12,-2.906l0.85,4473.45l-0.85,-4473.45Z" style="fill:none;stroke:#fff;stroke-opacity:0.25;stroke-width:15.42px;"/><path d="M3385.84,4470.41l-0.12,-4470.03" style="fill:none;stroke:#fff;stroke-opacity:0.25;stroke-width:15.42px;"/><path d="M3691.14,0.737l1.695,4468.64" style="fill:none;stroke:#fff;stroke-opacity:0.25;stroke-width:15.42px;"/><path d="M3999.44,4471.82l-0.274,-4472.84" style="fill:none;stroke:#fff;stroke-opacity:0.25;stroke-width:15.42px;"/><path d="M4612.39,-19.976l0.67,4492.83l-0.67,-4492.83Z" style="fill:none;stroke:#fff;stroke-opacity:0.25;stroke-width:15.42px;"/><path d="M4918.33,1.331l2.049,4469.77" style="fill:none;stroke:#fff;stroke-opacity:0.25;stroke-width:15.42px;"/><path d="M5227.77,0.157l-1.413,4471.73" style="fill:none;stroke:#fff;stroke-opacity:0.25;stroke-width:15.42px;"/><path d="M5533.95,-29.346l-0.561,4502.19" style="fill:none;stroke:#fff;stroke-opacity:0.25;stroke-width:15.42px;"/><path d="M5850.87,5.192l-11.311,4467.43" style="fill:none;stroke:#fff;stroke-opacity:0.25;stroke-width:15.42px;"/><path d="M6148.34,1.351l-1.91,4472.25l1.91,-4472.25Z" style="fill:none;stroke:#fff;stroke-opacity:0.25;stroke-width:15.42px;"/><path d="M6453.13,-0.144l0.876,4472.41l-0.876,-4472.41Z" style="fill:none;stroke:#fff;stroke-opacity:0.25;stroke-width:15.42px;"/><path d="M6760.22,1.067l0.024,4472.95" style="fill:none;stroke:#fff;stroke-opacity:0.25;stroke-width:15.42px;"/><path d="M7067.28,1.256l0.421,4471.18" style="fill:none;stroke:#fff;stroke-opacity:0.25;stroke-width:15.42px;"/><path d="M7373.99,1.437l0.06,4471.51" style="fill:none;stroke:#fff;stroke-opacity:0.25;stroke-width:15.42px;"/><path d="M7681.21,1.824c-0.521,1486.07 -0.608,2987.24 -1.129,4473.3" style="fill:none;stroke:#fff;stroke-opacity:0.25;stroke-width:15.42px;"/><path d="M7988.23,-9.068l-0.472,4484.81" style="fill:none;stroke:#fff;stroke-opacity:0.25;stroke-width:15.42px;"/><path d="M4305.88,1.1l0.017,4471.53l-0.017,-4471.53Z" style="fill:none;stroke:#fff;stroke-opacity:0.25;stroke-width:15.42px;"/></g></g></svg>